<?xml version="1.0" standalone="no"?>
<!DOCTYPE svg PUBLIC "-//W3C//DTD SVG 20010904//EN"
 "http://www.w3.org/TR/2001/REC-SVG-20010904/DTD/svg10.dtd">
<svg version="1.0" xmlns="http://www.w3.org/2000/svg"
 width="500.000000pt" height="500.000000pt" viewBox="0 0 500.000000 500.000000"
 preserveAspectRatio="xMidYMid meet">

<g transform="translate(0.000000,500.000000) scale(0.100000,-0.100000)"
fill="#000000" stroke="none">
<path d="M0 2500 l0 -2500 2500 0 2500 0 0 2500 0 2500 -2500 0 -2500 0 0
-2500z m2570 1180 c50 -14 106 -75 129 -141 55 -155 49 -413 -12 -534 -11 -22
-39 -58 -62 -80 -29 -27 -53 -64 -74 -114 -34 -80 -39 -104 -17 -81 18 19 66
111 66 126 0 18 22 31 63 37 30 5 42 2 58 -14 11 -11 18 -27 15 -35 -9 -24 8
-15 29 15 10 16 37 38 60 48 37 17 40 21 43 64 4 64 -94 626 -115 659 -9 14
-24 30 -32 37 -13 10 0 12 67 13 74 0 99 -8 72 -25 -5 -3 -10 -23 -10 -43 0
-47 83 -542 91 -542 4 0 9 17 12 38 3 20 22 129 41 242 40 227 43 281 21 304
-24 23 -19 26 47 26 l61 0 -20 -22 c-48 -55 -55 -115 -28 -256 13 -64 31 -168
41 -229 10 -62 20 -111 22 -108 9 9 92 488 92 532 0 16 -7 38 -15 49 -23 30
-19 34 40 34 30 0 55 -4 55 -10 0 -5 -4 -10 -8 -10 -21 0 -44 -92 -81 -325
-53 -323 -52 -311 -23 -307 26 4 28 -8 7 -48 -17 -33 -7 -41 13 -10 7 11 22
20 33 20 18 0 20 -4 15 -26 -7 -25 -5 -26 23 -21 39 8 39 1 1 -73 -33 -66 -34
-70 -19 -70 5 0 23 28 39 63 37 83 58 100 125 104 62 4 60 12 16 -91 -12 -27
-19 -51 -17 -53 10 -10 26 10 51 64 33 73 51 93 85 93 38 0 53 -21 40 -54 -5
-14 -7 -34 -4 -43 5 -14 4 -15 -4 -4 -7 9 -12 10 -16 2 -9 -15 -36 -14 -36 1
0 6 7 19 16 29 9 10 14 23 12 30 -6 18 -39 -38 -45 -77 -7 -40 13 -46 42 -14
10 11 20 18 23 15 3 -3 -3 -14 -13 -25 -20 -23 -60 -27 -68 -7 -13 35 51 144
72 122 11 -12 -4 -55 -19 -55 -5 0 -10 -5 -10 -11 0 -17 31 11 40 36 10 28 2
45 -24 45 -28 0 -59 -33 -80 -83 -17 -41 -13 -63 15 -77 35 -19 101 27 104 73
1 12 7 22 14 22 6 0 29 38 49 85 33 75 41 85 65 88 l28 3 -15 -30 c-21 -40
-20 -49 7 -53 16 -2 23 -11 25 -32 l4 -29 18 31 c28 46 91 56 106 17 9 -22
-23 -66 -57 -78 -17 -7 -29 -19 -29 -29 0 -41 50 -7 83 57 10 19 16 24 17 13
0 -9 -4 -20 -10 -23 -5 -3 -10 -12 -10 -18 0 -7 7 -3 15 7 25 33 17 3 -9 -35
-31 -45 -77 -66 -111 -51 -19 9 -31 8 -54 -5 -35 -20 -57 -8 -64 35 l-3 27
-13 -33 c-13 -31 -37 -52 -61 -52 -7 0 -9 7 -6 17 6 16 5 16 -11 1 -26 -23
-68 -32 -92 -19 -16 9 -26 8 -47 -6 -19 -12 -30 -14 -43 -6 -12 7 -22 6 -39
-5 -19 -12 -28 -13 -42 -4 -14 9 -25 8 -49 -4 -23 -11 -35 -12 -51 -4 -22 12
-25 26 -10 65 5 14 6 24 1 21 -5 -4 -11 -2 -13 4 -2 6 -15 -10 -31 -36 -15
-25 -23 -43 -17 -39 6 3 17 20 26 37 8 16 18 28 20 25 10 -9 -45 -85 -65 -92
-29 -9 -61 12 -61 38 1 12 7 40 15 62 8 21 13 40 12 41 -1 1 -19 4 -39 5 -28
3 -43 -2 -63 -21 -24 -23 -55 -79 -55 -101 0 -22 29 -6 46 26 18 34 44 47 44
23 0 -7 -9 -28 -20 -46 -24 -38 -65 -58 -95 -44 -15 7 -27 6 -40 -5 -11 -7
-30 -11 -42 -8 -12 3 -34 0 -49 -5 -33 -13 -64 10 -64 47 0 21 -4 19 -43 -22
-42 -44 -87 -59 -102 -36 -3 6 -18 3 -35 -7 -25 -14 -33 -15 -51 -4 -18 11
-24 11 -38 -2 -10 -9 -25 -16 -34 -16 -19 0 -47 26 -46 43 0 7 7 2 16 -10 16
-24 47 -30 59 -12 4 8 0 9 -15 4 -29 -9 -28 25 4 93 18 39 30 52 47 53 22 2
22 2 1 6 -20 4 -21 6 -7 38 17 41 17 45 4 45 -6 0 -19 -20 -30 -45 -12 -29
-26 -45 -37 -45 -15 0 -16 -2 -3 -10 13 -8 12 -15 -8 -54 -13 -24 -33 -54 -45
-67 -20 -22 -20 -22 -2 -16 17 6 16 4 -4 -13 -27 -23 -83 -27 -100 -6 -9 10
-4 27 21 71 44 78 57 81 47 11 -4 -30 -10 -60 -14 -65 -9 -16 -25 -13 -25 5 0
8 -4 12 -10 9 -21 -13 -10 -35 18 -35 41 0 48 10 51 70 1 30 9 66 18 78 14 23
14 24 -9 17 -12 -4 -33 -17 -45 -28 -13 -11 -23 -16 -23 -9 0 22 58 52 99 52
34 0 43 4 53 25 9 21 7 29 -20 59 -111 126 -122 497 -21 662 25 41 40 53 86
70 47 16 41 16 83 4z m-641 -35 c40 -37 51 -33 51 16 0 17 8 19 86 19 l85 0
-20 -26 c-18 -23 -21 -41 -21 -140 l0 -114 66 0 67 0 -5 115 c-4 104 -7 117
-28 140 l-23 25 83 0 83 0 -21 -23 c-22 -23 -22 -28 -22 -365 0 -329 1 -343
20 -362 11 -11 20 -22 20 -25 0 -3 -29 -5 -65 -5 -51 0 -65 -3 -65 -15 0 -17
-12 -19 -26 -5 -7 7 -14 3 -22 -14 -13 -30 6 -41 43 -24 29 13 55 -3 55 -34 0
-10 5 -16 10 -13 6 3 10 3 10 0 0 -11 -32 -70 -48 -87 -12 -15 -13 -18 -1 -18
31 -1 -26 -30 -58 -30 -48 0 -63 35 -40 96 12 33 13 44 4 41 -10 -3 -95 -178
-96 -199 -1 -5 94 -8 210 -8 205 0 211 0 189 -18 l-22 -18 41 -210 c77 -384
84 -413 92 -379 30 129 119 559 119 575 0 10 -10 26 -22 34 -21 15 -6 16 185
16 l207 0 1 -22 c5 -94 4 -190 -2 -194 -4 -2 -10 26 -14 62 -4 36 -13 81 -21
100 -14 33 -15 34 -74 34 l-60 0 0 -120 0 -120 45 0 c40 0 47 3 55 26 6 14 10
45 10 70 0 24 5 44 10 44 6 0 10 -57 10 -150 0 -151 -13 -201 -23 -91 -3 33
-8 64 -12 70 -3 6 -26 11 -51 11 l-44 0 0 -215 0 -215 60 0 c72 0 77 6 95 124
l13 81 1 -112 1 -113 -205 0 -206 0 21 28 c19 26 20 39 18 262 l-3 234 -44
-214 c-24 -118 -48 -236 -53 -262 -16 -79 -32 -58 -61 80 -14 70 -39 183 -54
252 l-28 124 -3 -189 c-3 -221 1 -268 31 -295 21 -20 21 -20 -127 -20 l-147 0
20 26 c20 26 21 38 20 333 0 168 -4 315 -9 326 -6 13 -9 -12 -9 -72 -1 -55 -5
-93 -11 -93 -5 0 -10 19 -10 43 0 60 -27 147 -46 147 -29 0 -34 -53 -34 -339
0 -276 7 -351 31 -351 5 0 9 -4 9 -10 0 -6 -32 -10 -77 -10 l-76 0 24 26 c24
26 24 26 27 292 4 292 -1 370 -25 379 -27 10 -45 -24 -58 -108 l-13 -84 -1
113 c-1 110 -1 112 22 112 20 0 29 15 66 101 31 74 39 104 30 109 -14 9 -3 30
16 30 7 0 22 16 34 35 l20 35 -74 0 c-41 0 -75 2 -75 5 0 3 9 14 20 25 17 17
20 35 22 133 5 216 -4 572 -14 585 -22 26 -31 12 -25 -39 7 -59 -3 -239 -13
-239 -4 0 -10 33 -13 73 -8 88 -30 157 -63 192 -55 60 -134 3 -134 -96 0 -72
13 -94 110 -193 105 -107 129 -154 130 -245 0 -121 -63 -200 -166 -209 -52 -4
-55 -3 -94 35 -22 22 -42 38 -45 35 -3 -3 -5 -18 -5 -34 0 -15 -4 -28 -10 -28
-6 0 -10 57 -10 150 0 120 3 150 14 150 9 0 15 -21 19 -74 12 -162 93 -256
170 -196 33 26 49 77 49 155 -1 81 -13 103 -112 200 -96 94 -119 136 -120 220
0 106 57 175 146 175 36 0 51 -6 83 -35z m2066 -605 c-6 -29 -6 -30 24 -24 17
4 31 4 31 0 0 -4 -13 -33 -30 -66 -33 -65 -34 -70 -21 -70 5 0 18 16 30 35 11
19 25 35 31 35 20 0 9 -40 -21 -75 -26 -29 -38 -35 -63 -33 -30 3 -31 5 -33
53 -8 145 -1 175 39 175 17 0 19 -5 13 -30z m-2159 -195 c4 -8 -10 -53 -30
-99 -40 -93 -41 -96 -25 -96 5 0 23 28 39 63 34 76 58 100 97 95 22 -2 29 -9
31 -32 2 -16 -1 -33 -7 -39 -8 -8 -11 -7 -11 2 0 11 -3 11 -15 1 -8 -7 -15
-17 -15 -22 0 -6 7 -4 17 3 14 12 16 12 11 -1 -7 -23 -43 -19 -41 5 1 11 -4 5
-13 -14 -27 -60 20 -70 54 -11 20 34 42 47 42 23 0 -28 -39 -80 -71 -93 -23
-10 -36 -10 -55 -1 -20 9 -30 8 -49 -5 -22 -14 -28 -15 -47 -2 -21 13 -26 13
-53 -4 -16 -10 -48 -18 -70 -18 -67 -1 -119 -6 -137 -14 -9 -4 -26 -3 -37 4
-16 8 -28 7 -51 -5 -23 -12 -35 -13 -50 -5 -26 14 -25 40 1 93 17 33 18 39 5
28 -9 -7 -30 -42 -47 -77 -25 -53 -34 -64 -54 -64 -27 0 -27 -2 14 93 27 62
26 66 -4 37 -13 -12 -34 -47 -47 -77 -16 -38 -29 -55 -45 -60 -13 -3 -25 -4
-27 -2 -2 2 14 45 36 96 29 66 45 93 61 97 34 9 87 7 87 -4 0 -5 13 -2 28 7
59 34 78 -6 42 -86 -41 -89 2 -49 50 47 25 50 35 62 55 62 l24 0 -29 -69 c-34
-78 -34 -81 -19 -81 6 0 27 36 46 80 30 67 40 80 60 80 13 0 23 -2 23 -5 0 -2
-11 -30 -25 -61 -45 -103 -25 -113 26 -13 31 63 80 99 114 85 16 -6 17 -8 1
-24 -17 -19 -24 -94 -7 -76 14 13 71 127 71 139 0 13 20 35 32 35 5 0 11 -7
14 -15z"/>
<path d="M2514 3659 c-27 -10 -60 -51 -73 -92 -31 -96 -40 -341 -17 -467 20
-110 39 -150 72 -150 19 0 25 -4 21 -15 -9 -23 8 -26 42 -9 41 20 55 44 77
124 25 91 25 365 1 465 -28 113 -72 164 -123 144z"/>
<path d="M2997 3178 c-9 -62 -19 -138 -23 -168 l-6 -55 26 28 c27 27 66 37 66
16 0 -5 -4 -7 -10 -4 -22 14 -53 -22 -96 -113 -50 -104 -69 -132 -91 -132 -20
0 -16 29 12 88 29 63 29 62 10 62 -8 0 -15 -4 -15 -10 0 -5 -13 -7 -31 -3 -27
5 -36 1 -72 -38 l-42 -44 -3 38 c-3 33 -6 38 -25 35 -17 -2 -22 -10 -23 -33
-2 -29 -2 -29 3 -2 2 15 9 27 14 27 12 0 12 -37 -1 -45 -5 -3 -10 -15 -10 -25
0 -26 -53 -85 -68 -76 -18 11 -15 29 13 92 14 32 23 59 21 62 -10 10 -26 -12
-57 -79 -54 -117 -102 -116 -55 1 30 73 29 70 16 70 -5 0 -23 -27 -39 -60 -24
-48 -28 -66 -21 -85 12 -31 36 -32 67 -3 13 12 23 17 23 10 0 -19 38 -23 70
-7 16 8 30 19 30 24 0 13 48 61 61 61 7 0 9 -9 5 -24 -3 -14 -3 -32 0 -40 8
-20 48 -21 64 -1 11 13 14 13 27 0 19 -19 26 -19 54 4 21 17 25 17 35 3 18
-25 67 1 87 46 9 20 11 28 4 18 -49 -77 -91 -81 -68 -6 14 47 80 127 91 110 5
-8 10 -7 18 3 15 18 8 131 -12 217 -9 36 -16 79 -16 95 0 17 -4 36 -8 43 -5 7
-15 -33 -25 -100z m57 -204 c3 -9 1 -23 -4 -32 -9 -14 -10 -12 -5 8 6 23 5 23
-13 -5 -10 -16 -26 -36 -35 -44 -16 -13 -16 -11 -1 25 26 63 46 80 58 48z
m-208 -125 c-13 -66 -53 -125 -73 -106 -9 10 6 70 27 105 26 43 55 44 46 1z"/>
<path d="M2801 2827 c-23 -47 -28 -82 -10 -71 13 7 48 82 49 102 0 26 -19 10
-39 -31z"/>
<path d="M3677 2960 c-62 -143 -61 -140 -48 -140 6 0 21 21 34 48 31 62 50 92
60 92 4 0 5 -6 1 -12 -4 -8 -3 -10 2 -5 5 5 9 14 9 20 0 5 6 12 13 15 21 7 13
-18 -14 -43 -15 -14 -30 -25 -33 -25 -13 0 1 -79 15 -84 7 -3 26 5 40 18 27
22 28 22 46 4 13 -13 26 -17 41 -12 25 7 67 43 67 57 0 5 -9 -2 -21 -17 -22
-29 -63 -35 -73 -11 -8 21 3 45 21 45 8 0 28 13 44 29 32 33 30 61 -5 61 -28
0 -56 -31 -85 -92 -27 -58 -49 -78 -62 -57 -17 27 -9 55 21 77 48 36 31 79
-21 52 -24 -13 -25 -17 5 53 13 29 13 37 3 37 -7 0 -34 -49 -60 -110z m213 15
c0 -17 -35 -55 -50 -55 -16 0 -12 15 11 44 23 29 39 34 39 11z"/>
<path d="M3860 2960 c-6 -11 -8 -20 -6 -20 3 0 10 9 16 20 6 11 8 20 6 20 -3
0 -10 -9 -16 -20z"/>
<path d="M3161 2978 c-6 -18 -22 -41 -34 -51 -12 -10 -16 -15 -8 -11 16 8 14
1 -16 -78 -16 -44 -17 -49 -1 -64 11 -11 23 -14 35 -9 16 6 16 8 -4 16 l-23 8
21 53 c12 29 23 59 26 66 3 6 15 13 27 13 16 1 17 2 4 6 -21 5 -22 10 -3 43
18 32 18 40 1 40 -8 0 -19 -15 -25 -32z"/>
<path d="M3236 2968 c-2 -7 -8 -28 -14 -47 -7 -19 -10 -36 -8 -39 2 -2 7 6 11
17 3 12 15 21 26 21 25 0 24 -5 -8 -67 -26 -48 -27 -54 -12 -69 14 -13 20 -14
40 -3 13 7 29 19 35 27 9 13 12 13 17 -2 8 -21 41 -21 58 2 13 15 12 16 -3 4
-42 -33 -46 30 -6 96 38 62 64 29 33 -44 -16 -38 -12 -59 12 -68 19 -8 63 19
63 37 0 6 -5 4 -11 -5 -11 -19 -49 -25 -49 -8 0 6 11 38 25 72 25 62 25 89 -1
54 -8 -11 -14 -14 -14 -8 0 18 -46 14 -66 -5 -9 -10 -26 -38 -37 -63 -23 -52
-45 -80 -64 -80 -20 0 -15 30 12 75 32 51 31 65 -1 65 -23 0 -26 3 -22 25 5
25 -10 36 -16 13z"/>
<path d="M3763 2923 c-22 -15 -34 -71 -13 -58 11 7 43 65 38 70 -2 1 -13 -4
-25 -12z"/>
<path d="M3393 2918 c-15 -17 -43 -83 -43 -99 0 -21 30 12 46 50 18 43 16 72
-3 49z"/>
<path d="M2550 2905 c0 -8 7 -15 15 -15 8 0 15 7 15 15 0 8 -7 15 -15 15 -8 0
-15 -7 -15 -15z"/>
<path d="M3236 2894 c-10 -25 1 -29 14 -5 6 12 7 21 1 21 -5 0 -12 -7 -15 -16z"/>
<path d="M2887 2838 c-30 -70 -32 -78 -16 -78 8 0 69 118 69 135 0 3 -6 5 -13
5 -7 0 -25 -28 -40 -62z"/>
<path d="M3150 2856 c-21 -48 -25 -66 -12 -66 4 0 20 25 35 55 21 43 24 55 12
55 -8 0 -24 -20 -35 -44z"/>
<path d="M2495 2881 c-3 -6 4 -8 16 -6 30 6 37 15 11 15 -11 0 -23 -4 -27 -9z"/>
<path d="M2382 2827 c-6 -12 -13 -38 -16 -57 -5 -33 -5 -34 10 -15 33 43 43
69 29 82 -10 9 -15 7 -23 -10z"/>
<path d="M2451 2784 c-36 -94 -23 -99 28 -9 36 64 37 65 12 65 -13 0 -24 -16
-40 -56z"/>
<path d="M2628 2797 c-21 -50 -23 -68 -5 -61 22 8 49 63 42 84 -9 30 -18 25
-37 -23z"/>
<path d="M2302 2766 c-9 -20 -10 -32 -3 -39 13 -13 24 12 19 44 -3 22 -4 22
-16 -5z"/>
<path d="M2467 2733 c-4 -3 -7 -11 -7 -17 0 -6 5 -5 12 2 6 6 9 14 7 17 -3 3
-9 2 -12 -2z"/>
<path d="M2110 3165 c0 -201 1 -216 20 -235 15 -15 27 -18 52 -13 18 3 35 7
36 9 14 11 22 107 21 267 l-1 187 -64 0 -64 0 0 -215z"/>
<path d="M2153 2888 c-11 -13 -26 -33 -32 -45 -6 -13 -22 -24 -34 -24 -17 -1
-18 -2 -4 -6 9 -2 17 -6 17 -7 0 -1 -18 -45 -41 -97 -60 -137 -60 -139 -46
-139 7 0 35 52 62 116 37 87 54 118 72 125 13 5 23 11 23 13 0 3 -7 3 -15 0
-24 -9 -18 21 10 53 21 24 26 26 35 13 8 -13 10 -13 10 3 0 24 -32 21 -57 -5z"/>
<path d="M2213 2829 c-44 -16 -87 -116 -63 -144 13 -16 65 -21 74 -7 2 4 -8 8
-22 7 -21 0 -28 5 -30 25 -2 21 4 28 40 42 l43 18 -24 -20 c-13 -11 -29 -20
-37 -20 -16 0 -19 -26 -5 -34 18 -11 42 7 62 46 11 22 15 37 9 33 -7 -4 -9 1
-5 17 8 31 -12 49 -42 37z m27 -29 c0 -18 -45 -58 -55 -48 -7 6 34 68 45 68 5
0 10 -9 10 -20z"/>
<path d="M2216 2793 c-6 -14 -5 -15 5 -6 7 7 10 15 7 18 -3 3 -9 -2 -12 -12z"/>
<path d="M2319 2564 c-11 -14 -15 -73 -17 -313 -3 -299 3 -371 32 -371 8 0 17
7 20 16 3 9 6 158 6 333 0 245 -3 321 -13 335 -12 17 -14 17 -28 0z"/>
<path d="M2756 2555 c-3 -9 -6 -157 -6 -329 0 -245 3 -316 13 -331 13 -17 15
-17 30 6 15 21 17 59 16 319 -1 162 -4 306 -8 320 -8 29 -36 38 -45 15z"/>
<path d="M3963 3048 c-4 -7 -8 -22 -9 -33 -1 -11 -4 -29 -8 -40 -5 -15 -4 -14
5 3 13 24 18 26 37 14 10 -7 7 -19 -13 -53 -29 -51 -32 -77 -9 -86 25 -9 62
13 80 49 16 33 16 33 -19 -7 -25 -29 -38 -37 -46 -29 -8 7 -3 26 19 67 34 63
37 79 15 71 -29 -12 -46 3 -35 31 10 26 -2 35 -17 13z"/>
<path d="M3961 2962 c-17 -31 -13 -40 5 -14 9 13 14 26 11 29 -3 2 -10 -4 -16
-15z"/>
<path d="M1804 2836 c-8 -22 3 -33 18 -18 9 9 9 15 0 24 -9 9 -13 7 -18 -6z"/>
<path d="M1873 2778 c-34 -36 -55 -95 -44 -117 14 -25 36 -32 65 -21 24 9 66
55 66 73 0 5 -10 -5 -23 -24 -15 -22 -32 -35 -50 -37 -40 -5 -44 21 -14 84 28
56 52 69 60 34 4 -17 4 -16 3 2 -2 32 -36 35 -63 6z"/>
<path d="M1760 2731 c-18 -33 -43 -70 -57 -82 l-24 -24 10 28 c6 16 11 45 11
66 0 20 5 42 12 49 9 9 9 12 -4 12 -28 0 -70 -43 -93 -95 -26 -59 -50 -84 -66
-68 -7 7 -3 31 15 75 29 72 30 78 16 78 -6 0 -15 -11 -20 -25 -6 -15 -21 -50
-35 -80 -44 -93 -85 -77 -45 18 12 29 24 58 27 65 3 6 0 12 -6 12 -6 0 -25
-28 -42 -62 -38 -76 -56 -98 -81 -98 -23 0 -23 1 7 60 44 86 23 120 -38 63
-16 -16 -28 -23 -27 -18 8 38 -20 47 -52 18 -12 -11 -18 -12 -18 -4 0 31 -24
-1 -55 -72 -38 -88 -24 -111 16 -25 25 53 69 108 87 108 12 0 2 -41 -20 -86
-9 -16 -19 -39 -22 -51 -14 -43 20 -14 43 37 25 55 82 122 88 103 2 -6 -7 -33
-21 -60 -30 -55 -33 -78 -10 -87 18 -7 29 -2 62 27 18 17 22 18 22 5 0 -24 30
-30 56 -13 19 12 27 13 43 3 17 -10 24 -9 44 10 21 20 25 21 30 8 12 -31 75
-14 109 28 l18 21 0 -21 c0 -12 7 -25 16 -28 19 -7 64 18 64 36 0 6 -11 1 -25
-12 -22 -20 -25 -21 -31 -6 -3 9 4 40 16 69 12 29 24 58 27 65 3 6 0 12 -5 12
-6 0 -25 -27 -42 -59z m-87 -23 c-3 -29 -10 -61 -15 -70 -11 -23 -29 -24 -21
-1 5 12 2 15 -10 10 -21 -8 -21 -8 -1 39 14 34 41 74 50 74 2 0 0 -24 -3 -52z"/>
<path d="M1643 2693 c-8 -22 -8 -35 -2 -39 16 -9 21 1 17 38 l-3 33 -12 -32z"/>
<path d="M1901 2766 c-8 -9 -11 -19 -7 -23 9 -9 29 13 24 27 -2 8 -8 7 -17 -4z"/>
</g>
</svg>
